<svg width="6518" height="1795" viewBox="0 0 6518 1795" fill="none" xmlns="http://www.w3.org/2000/svg">
<path d="M4447.1 719.355C4451.7 1128.06 4166.86 1463.66 3810.91 1468.94C3454.95 1474.23 3162.65 1147.19 3158.05 738.483C3158 733.553 3157.99 728.623 3158.02 723.693" stroke="black" stroke-width="105.417" stroke-miterlimit="8"/>
<path d="M3158 561V766.447" stroke="black" stroke-width="105.417" stroke-miterlimit="8"/>
<path d="M6471.5 966.767C6472.27 1121.33 6363.89 1247.34 6229.45 1248.21C6095 1249.09 5985.4 1124.51 5984.63 969.948C5984.63 969.415 5984.63 968.891 5984.63 968.357" stroke="black" stroke-width="91.6667" stroke-miterlimit="8"/>
<path d="M5984.63 1530.12C5983.87 1375.32 6092.24 1249.1 6226.68 1248.23C6361.13 1247.35 6470.74 1372.13 6471.5 1526.94C6471.5 1527.47 6471.5 1528 6471.5 1528.53" stroke="black" stroke-width="91.6667" stroke-miterlimit="8"/>
<path d="M5866.91 688.938H5589.71V915.494H5866.91V688.938Z" fill="white" stroke="white" stroke-width="4.58333" stroke-miterlimit="8"/>
<path fill-rule="evenodd" clip-rule="evenodd" d="M3514.27 742.245C3514.27 676.003 3566.78 622.303 3631.55 622.303C3696.32 622.303 3748.83 676.003 3748.83 742.245C3748.83 808.489 3696.32 862.187 3631.55 862.187C3566.78 862.187 3514.27 808.489 3514.27 742.245Z" fill="black" stroke="black" stroke-width="4.58333" stroke-miterlimit="8"/>
<path d="M4447.15 561V766.447" stroke="black" stroke-width="105.417" stroke-miterlimit="8"/>
<path fill-rule="evenodd" clip-rule="evenodd" d="M3547.15 707.151C3547.15 675.503 3572.21 649.846 3603.12 649.846C3634.03 649.846 3659.09 675.503 3659.09 707.151C3659.09 738.8 3634.03 764.457 3603.12 764.457C3572.21 764.457 3547.15 738.8 3547.15 707.151Z" fill="white" stroke="white" stroke-width="4.58333" stroke-miterlimit="8"/>
<path fill-rule="evenodd" clip-rule="evenodd" d="M3930.07 833.312C3930.07 825.218 3936.64 818.653 3944.73 818.653C3952.82 818.653 3959.39 825.218 3959.39 833.312C3959.39 841.406 3952.82 847.972 3944.73 847.972C3936.64 847.972 3930.07 841.406 3930.07 833.312Z" fill="white" stroke="white" stroke-width="4.58333" stroke-miterlimit="8"/>
<path fill-rule="evenodd" clip-rule="evenodd" d="M3607.56 813.322C3607.56 804.491 3614.52 797.33 3623.11 797.33C3631.7 797.33 3638.66 804.491 3638.66 813.322C3638.66 822.153 3631.7 829.314 3623.11 829.314C3614.52 829.314 3607.56 822.153 3607.56 813.322Z" fill="white" stroke="white" stroke-width="4.58333" stroke-miterlimit="8"/>
<path fill-rule="evenodd" clip-rule="evenodd" d="M3659.09 770.676C3659.09 754.974 3671.62 742.245 3687.08 742.245C3702.53 742.245 3715.06 754.974 3715.06 770.676C3715.06 786.375 3702.53 799.106 3687.08 799.106C3671.62 799.106 3659.09 786.375 3659.09 770.676Z" fill="white" stroke="white" stroke-width="4.58333" stroke-miterlimit="8"/>
<path fill-rule="evenodd" clip-rule="evenodd" d="M3817.24 742.245C3817.24 676.003 3869.74 622.303 3934.51 622.303C3999.28 622.303 4051.79 676.003 4051.79 742.245C4051.79 808.489 3999.28 862.187 3934.51 862.187C3869.74 862.187 3817.24 808.489 3817.24 742.245Z" fill="black" stroke="black" stroke-width="4.58333" stroke-miterlimit="8"/>
<path fill-rule="evenodd" clip-rule="evenodd" d="M3850.11 707.151C3850.11 675.503 3875.17 649.846 3906.08 649.846C3936.99 649.846 3962.05 675.503 3962.05 707.151C3962.05 738.8 3936.99 764.457 3906.08 764.457C3875.17 764.457 3850.11 738.8 3850.11 707.151Z" fill="white" stroke="white" stroke-width="4.58333" stroke-miterlimit="8"/>
<path fill-rule="evenodd" clip-rule="evenodd" d="M3910.52 813.322C3910.52 804.491 3917.48 797.33 3926.07 797.33C3934.65 797.33 3941.62 804.491 3941.62 813.322C3941.62 822.153 3934.65 829.314 3926.07 829.314C3917.48 829.314 3910.52 822.153 3910.52 813.322Z" fill="white" stroke="white" stroke-width="4.58333" stroke-miterlimit="8"/>
<path fill-rule="evenodd" clip-rule="evenodd" d="M3962.94 770.676C3962.94 754.974 3975.28 742.245 3990.49 742.245C4005.7 742.245 4018.03 754.974 4018.03 770.676C4018.03 786.375 4005.7 799.106 3990.49 799.106C3975.28 799.106 3962.94 786.375 3962.94 770.676Z" fill="white" stroke="white" stroke-width="4.58333" stroke-miterlimit="8"/>
<path d="M5726.53 954.586V1524.55" stroke="black" stroke-width="105.417" stroke-miterlimit="8"/>
<path fill-rule="evenodd" clip-rule="evenodd" d="M5029.09 1249.11C5029.09 1114.42 5135.89 1005.23 5267.64 1005.23C5399.39 1005.23 5506.19 1114.42 5506.19 1249.11C5506.19 1383.8 5399.39 1492.99 5267.64 1492.99C5135.89 1492.99 5029.09 1383.8 5029.09 1249.11Z" stroke="black" stroke-width="105.417" stroke-miterlimit="8"/>
<path d="M5029.09 770.676V1248.9" stroke="black" stroke-width="105.417" stroke-miterlimit="8"/>
<path d="M4614.18 1273.54V1524.43" stroke="black" stroke-width="105.417" stroke-miterlimit="8"/>
<path d="M4614.2 1287.03C4616.14 1131.51 4748.14 1006.15 4910.93 1005.24" stroke="black" stroke-width="105.417" stroke-miterlimit="8"/>
<path fill-rule="evenodd" clip-rule="evenodd" d="M807.073 1747.36C1013.07 1747.36 1201.05 1671.68 1343.66 1547.14C1497.65 1436.45 1593.08 1438.42 1745.61 1543.53C1824.65 1619.05 1929.29 1665.02 2044.05 1665.02C2290.36 1665.02 2490.04 1453.27 2490.04 1192.05C2490.04 930.83 2290.36 719.071 2044.05 719.071C2002.39 719.071 1962.07 725.127 1923.83 736.454C1703.91 784.46 1542.93 605.977 1507.2 562.097C1367.91 324.598 1106.54 164.674 807.073 164.674C361.339 164.674 0 518.97 0 956.017C0 1393.06 361.339 1747.36 807.073 1747.36Z" fill="#FFA760" fill-opacity="0.6"/>
<path fill-rule="evenodd" clip-rule="evenodd" d="M2475.24 464.981C2338.23 408.064 2192.22 409.063 2062.83 456.779C1929.73 491.655 1866.81 463.915 1794.52 348.255C1762.9 273.589 1706.05 212.521 1629.73 180.813C1465.91 112.76 1274.38 205.71 1201.94 388.423C1129.49 571.135 1203.56 774.421 1367.38 842.475C1395.07 853.981 1423.56 860.885 1452.14 863.53C1611.74 890.705 1669.3 1060.06 1680.88 1100.61C1707.66 1305.21 1837.13 1489.28 2036.3 1572.02C2332.74 1695.17 2671.32 1547.18 2792.53 1241.48C2913.74 935.782 2771.68 588.131 2475.24 464.981Z" fill="#FFA760" fill-opacity="0.4"/>
</svg>
