<svg width="1812" height="1812" viewBox="0 0 1812 1812" fill="none" xmlns="http://www.w3.org/2000/svg">
<rect width="1812" height="1812" fill="white"/>
<path fill-rule="evenodd" clip-rule="evenodd" d="M578.5 1370C693.743 1370 798.902 1328.64 878.683 1260.57C964.83 1200.07 1018.21 1201.15 1103.54 1258.6C1147.76 1299.88 1206.3 1325 1270.5 1325C1408.3 1325 1520 1209.27 1520 1066.5C1520 923.734 1408.3 808 1270.5 808C1247.2 808 1224.64 811.31 1203.25 817.5C1080.22 843.737 990.16 746.19 970.174 722.207C892.25 592.405 746.031 505 578.5 505C329.143 505 127 698.637 127 937.5C127 1176.36 329.143 1370 578.5 1370Z" fill="#FFA760" fill-opacity="0.6"/>
<path fill-rule="evenodd" clip-rule="evenodd" d="M1511.72 669.13C1435.07 638.023 1353.39 638.569 1281.01 664.648C1206.54 683.708 1171.35 668.547 1130.91 605.335C1113.22 564.527 1081.42 531.151 1038.72 513.821C947.073 476.627 839.926 527.428 799.398 627.288C758.87 727.147 800.307 838.251 891.95 875.445C907.444 881.733 923.381 885.506 939.364 886.952C1028.65 901.802 1060.85 994.358 1067.33 1016.52C1082.31 1128.35 1154.75 1228.95 1266.16 1274.17C1432 1341.47 1621.41 1260.59 1689.22 1093.52C1757.03 926.441 1677.56 736.436 1511.72 669.13Z" fill="#FFA760" fill-opacity="0.4"/>
</svg>
